<svg viewBox="0 0 24 24" fill="none" xmlns="http://www.w3.org/2000/svg">
<path d="M7.45441 2H5.63623V3.81818H7.45441V2Z" fill="currentColor"/>
<path d="M18.3636 2H16.5454V3.81818H18.3636V2Z" fill="currentColor"/>
<path d="M9.27277 3.81818H7.45459V5.63636H9.27277V3.81818Z" fill="currentColor"/>
<path d="M16.5455 3.81818H14.7273V5.63636H16.5455V3.81818Z" fill="currentColor"/>
<path d="M9.27277 5.63635H7.45459V7.45453H9.27277V5.63635Z" fill="currentColor"/>
<path d="M11.0909 5.63635H9.27271V7.45453H11.0909V5.63635Z" fill="currentColor"/>
<path d="M12.9092 5.63635H11.0911V7.45453H12.9092V5.63635Z" fill="currentColor"/>
<path d="M14.7271 5.63635H12.9089V7.45453H14.7271V5.63635Z" fill="currentColor"/>
<path d="M16.5455 5.63635H14.7273V7.45453H16.5455V5.63635Z" fill="currentColor"/>
<path d="M7.45441 7.45459H5.63623V9.27277H7.45441V7.45459Z" fill="currentColor"/>
<path d="M9.27277 7.45459H7.45459V9.27277H9.27277V7.45459Z" fill="currentColor"/>
<path d="M11.0909 7.45459H9.27271V9.27277H11.0909V7.45459Z" fill="currentColor"/>
<path d="M12.9092 7.45459H11.0911V9.27277H12.9092V7.45459Z" fill="currentColor"/>
<path d="M14.7271 7.45459H12.9089V9.27277H14.7271V7.45459Z" fill="currentColor"/>
<path d="M16.5455 7.45459H14.7273V9.27277H16.5455V7.45459Z" fill="currentColor"/>
<path d="M18.3636 7.45459H16.5454V9.27277H18.3636V7.45459Z" fill="currentColor"/>
<path d="M5.63654 9.27277H3.81836V11.0909H5.63654V9.27277Z" fill="currentColor"/>
<path d="M7.45441 9.27277H5.63623V11.0909H7.45441V9.27277Z" fill="currentColor"/>
<path d="M12.9092 9.27277H11.0911V11.0909H12.9092V9.27277Z" fill="currentColor"/>
<path d="M14.7271 9.27277H12.9089V11.0909H14.7271V9.27277Z" fill="currentColor"/>
<path d="M20.182 9.27277H18.3638V11.0909H20.182V9.27277Z" fill="currentColor"/>
<path d="M5.63654 11.0909H3.81836V12.9091H5.63654V11.0909Z" fill="currentColor"/>
<path d="M7.45441 11.0909H5.63623V12.9091H7.45441V11.0909Z" fill="currentColor"/>
<path d="M11.0909 11.0909H9.27271V12.9091H11.0909V11.0909Z" fill="currentColor"/>
<path d="M12.9092 11.0909H11.0911V12.9091H12.9092V11.0909Z" fill="currentColor"/>
<path d="M14.7271 11.0909H12.9089V12.9091H14.7271V11.0909Z" fill="currentColor"/>
<path d="M18.3636 11.0909H16.5454V12.9091H18.3636V11.0909Z" fill="currentColor"/>
<path d="M20.182 11.0909H18.3638V12.9091H20.182V11.0909Z" fill="currentColor"/>
<path d="M3.81818 12.9091H2V14.7272H3.81818V12.9091Z" fill="currentColor"/>
<path d="M5.63654 12.9091H3.81836V14.7272H5.63654V12.9091Z" fill="currentColor"/>
<path d="M7.45441 12.9091H5.63623V14.7272H7.45441V12.9091Z" fill="currentColor"/>
<path d="M9.27277 12.9091H7.45459V14.7272H9.27277V12.9091Z" fill="currentColor"/>
<path d="M11.0909 12.9091H9.27271V14.7272H11.0909V12.9091Z" fill="currentColor"/>
<path d="M12.9092 12.9091H11.0911V14.7272H12.9092V12.9091Z" fill="currentColor"/>
<path d="M14.7271 12.9091H12.9089V14.7272H14.7271V12.9091Z" fill="currentColor"/>
<path d="M16.5455 12.9091H14.7273V14.7272H16.5455V12.9091Z" fill="currentColor"/>
<path d="M18.3636 12.9091H16.5454V14.7272H18.3636V12.9091Z" fill="currentColor"/>
<path d="M20.182 12.9091H18.3638V14.7272H20.182V12.9091Z" fill="currentColor"/>
<path d="M21.9998 12.9091H20.1816V14.7272H21.9998V12.9091Z" fill="currentColor"/>
<path d="M7.45441 14.7272H5.63623V16.5454H7.45441V14.7272Z" fill="currentColor"/>
<path d="M11.0909 14.7272H9.27271V16.5454H11.0909V14.7272Z" fill="currentColor"/>
<path d="M14.7271 14.7272H12.9089V16.5454H14.7271V14.7272Z" fill="currentColor"/>
<path d="M18.3636 14.7272H16.5454V16.5454H18.3636V14.7272Z" fill="currentColor"/>
<path d="M7.45441 16.5454H5.63623V18.3636H7.45441V16.5454Z" fill="currentColor"/>
<path d="M11.0909 16.5454H9.27271V18.3636H11.0909V16.5454Z" fill="currentColor"/>
<path d="M14.7271 16.5454H12.9089V18.3636H14.7271V16.5454Z" fill="currentColor"/>
<path d="M18.3636 16.5454H16.5454V18.3636H18.3636V16.5454Z" fill="currentColor"/>
<path d="M11.0909 18.3636H9.27271V20.1818H11.0909V18.3636Z" fill="currentColor"/>
<path d="M14.7271 18.3636H12.9089V20.1818H14.7271V18.3636Z" fill="currentColor"/>
<path d="M9.27277 20.1818H7.45459V22H9.27277V20.1818Z" fill="currentColor"/>
<path d="M11.0909 20.1818H9.27271V22H11.0909V20.1818Z" fill="currentColor"/>
<path d="M14.7271 20.1818H12.9089V22H14.7271V20.1818Z" fill="currentColor"/>
<path d="M16.5455 20.1818H14.7273V22H16.5455V20.1818Z" fill="currentColor"/>
</svg>
