<svg width="310" height="321" viewBox="0 0 310 321" fill="none" xmlns="http://www.w3.org/2000/svg">
<path d="M88.534 58.443C135.902 27.694 199.229 41.166 229.978 88.534L250.746 120.526C281.495 167.894 268.023 231.221 220.655 261.97C173.287 292.719 109.96 279.247 79.2105 231.879L58.4429 199.887L57.7309 198.774C27.907 151.532 41.5361 88.9519 88.534 58.443Z" stroke="#C6A0F6" stroke-width="4"/>
<path d="M68.609 216.024C64.2838 211.461 60.3122 206.44 56.7655 200.976L77.5329 232.968C108.883 281.262 173.449 294.998 221.743 263.648C270.038 232.298 283.774 167.732 252.423 119.437L231.656 87.4455C235.202 92.9089 238.172 98.5805 240.58 104.389C259.456 149.923 243.807 203.852 200.976 231.656C158.144 259.46 102.516 251.801 68.609 216.024Z" fill="#C6A0F6"/>
</svg>
