<svg xmlns="http://www.w3.org/2000/svg" width="268" height="286" fill="none" viewBox="0 0 268 286"><path fill="#C6A0F6" fill-rule="evenodd" d="M100.527 285.189L39.4578 251.094C39.1071 250.965 38.833 250.712 38.7602 250.41C38.744 250.342 38.7278 250.275 38.7116 250.208L29.8483 214.299C29.8159 214.165 29.7917 214.064 29.7755 213.997C29.7593 213.93 29.7431 213.863 29.7269 213.796C29.7941 213.78 29.8197 213.738 29.8035 213.671C29.8035 213.671 29.7954 213.637 29.7792 213.57C29.814 213.42 29.8824 213.261 29.9844 213.095L63.0234 160.912L9.68228 131.029C9.3316 130.9 9.05731 130.646 8.98452 130.344C8.96835 130.277 8.95224 130.21 8.93607 130.143L0.0727309 94.234C0.0403807 94.0997 0.0161638 93.9992 -1.17818e-05 93.932C0.0186031 93.7144 0.0453511 93.5304 0.0801415 93.3799C0.131107 93.2966 0.18204 93.2131 0.233005 93.1297C0.21683 93.0626 0.208719 93.0289 0.208719 93.0289L38.0852 33.4998C38.5439 32.7499 39.4504 32.5315 40.176 32.8895L117.001 75.7643L164.583 0.789233C165.042 0.0393375 166.049 -0.203385 166.674 0.178901L227.744 34.2745C227.827 34.3255 227.869 34.3511 227.869 34.3511C227.952 34.4021 227.994 34.4272 227.994 34.4272C228.077 34.4781 228.127 34.5374 228.143 34.6045C228.143 34.6045 228.151 34.6382 228.167 34.7053C228.25 34.7563 228.3 34.8151 228.316 34.8822C228.416 35.0003 228.474 35.0933 228.49 35.1604L237.377 71.1694C237.474 71.5723 237.346 71.923 237.217 72.2737L204.077 124.481L257.519 154.34C257.603 154.391 257.644 154.416 257.644 154.416C257.728 154.467 257.769 154.493 257.769 154.493C257.853 154.544 257.902 154.603 257.918 154.67C258.002 154.721 258.052 154.78 258.068 154.847C258.084 154.914 258.092 154.948 258.092 154.948C258.175 154.999 258.233 155.091 258.265 155.226L267.129 191.134C267.226 191.537 267.121 191.988 266.993 192.339L229.141 251.969C229.073 251.986 229.014 252.035 228.963 252.118C228.963 252.118 228.971 252.152 228.988 252.219C228.92 252.235 228.887 252.243 228.887 252.243C228.836 252.327 228.777 252.376 228.71 252.393C228.71 252.393 228.676 252.401 228.609 252.417C228.491 252.516 228.365 252.582 228.23 252.615C227.828 252.712 227.4 252.708 227.025 252.479L150.201 209.604L102.542 284.704C102.389 284.954 102.034 285.253 101.631 285.35C101.229 285.447 100.801 285.443 100.527 285.189ZM3.89509 96.8302L11.8121 128.81L64.754 158.363L77.5428 138.019L3.89509 96.8302ZM81.0085 138.25L33.45 213.326L91.9191 245.916L139.477 170.84C139.707 170.465 140.085 170.267 140.464 170.069C140.866 169.973 141.217 170.101 141.567 170.23L141.568 170.23L218.417 213.205L254.64 156.099L177.815 113.224C177.44 112.995 177.166 112.741 177.069 112.339C176.972 111.936 177.076 111.484 177.305 111.109L224.888 36.1347L166.52 3.51967L118.836 78.519C118.378 79.2689 117.471 79.4873 116.746 79.1293L39.921 36.2546L3.67432 93.2597L80.4989 136.134C80.8739 136.364 81.0474 136.642 81.2209 136.92C81.3422 137.423 81.3386 137.85 81.0085 138.25ZM201.477 122.976L234.311 71.2686L226.418 39.3892L180.771 111.34L201.477 122.976ZM150.456 206.239L225.454 248.168L217.537 216.188L141.213 173.619L93.9599 248.195L101.853 280.074L148.341 206.749C148.824 206.099 149.73 205.881 150.456 206.239ZM228.452 247.34L263.986 191.359L256.069 159.378L220.559 215.46L228.452 247.34ZM33.5699 216.92L41.4626 248.799L98.831 280.802L90.9383 248.923L33.5699 216.92Z" clip-rule="evenodd"/><path fill="#C6A0F6" d="M150.456 206.239L225.454 248.168L217.537 216.188L141.213 173.619L93.9599 248.195L101.853 280.074L148.341 206.749C148.824 206.099 149.73 205.881 150.456 206.239Z"/><path fill="#C6A0F6" d="M228.452 247.34L263.986 191.359L256.069 159.378L220.559 215.46L228.452 247.34Z"/><path fill="#C6A0F6" d="M33.5699 216.92L41.4626 248.799L98.831 280.802L90.9383 248.923L33.5699 216.92Z"/><path fill="#C6A0F6" d="M3.89509 96.8302L11.8121 128.81L64.754 158.363L77.5428 138.019L3.89509 96.8302Z"/><path fill="#C6A0F6" d="M201.477 122.976L234.311 71.2686L226.418 39.3892L180.771 111.34L201.477 122.976Z"/></svg>